<svg width="64" height="64" viewBox="0 0 64 64" fill="none" xmlns="http://www.w3.org/2000/svg">
<g clip-path="url(#clip0_2_8158)">
<path d="M32 64C49.6731 64 64 49.6731 64 32C64 14.3269 49.6731 0 32 0C14.3269 0 0 14.3269 0 32C0 49.6731 14.3269 64 32 64Z" fill="url(#paint0_radial_2_8158)"/>
<path d="M20.125 30.1125C22.203 30.1125 23.8876 27.7508 23.8876 24.8375C23.8876 21.9242 22.203 19.5625 20.125 19.5625C18.0471 19.5625 16.3625 21.9242 16.3625 24.8375C16.3625 27.7508 18.0471 30.1125 20.125 30.1125Z" fill="url(#paint1_radial_2_8158)"/>
<path d="M43.875 30.1125C45.953 30.1125 47.6376 27.7508 47.6376 24.8375C47.6376 21.9242 45.953 19.5625 43.875 19.5625C41.7971 19.5625 40.1125 21.9242 40.1125 24.8375C40.1125 27.7508 41.7971 30.1125 43.875 30.1125Z" fill="url(#paint2_radial_2_8158)"/>
<path d="M32.1374 49.425C29.9249 49.425 27.6999 49.0625 25.4749 48.325C19.5874 46.3875 15.8624 42.5875 15.7124 42.425C15.3249 42.025 15.3374 41.4 15.7374 41.0125C16.1374 40.625 16.7624 40.6375 17.1499 41.0375C17.1874 41.075 20.7374 44.6875 26.1749 46.45C33.3749 48.7875 40.3499 46.95 46.8999 40.9875C47.3124 40.6125 47.9374 40.65 48.3124 41.05C48.6874 41.4625 48.6499 42.0875 48.2499 42.4625C44.3374 46.025 40.1874 48.25 35.9124 49.0625C34.6624 49.3 33.3999 49.425 32.1374 49.425Z" fill="url(#paint3_linear_2_8158)"/>
</g>
<defs>
<radialGradient id="paint0_radial_2_8158" cx="0" cy="0" r="1" gradientUnits="userSpaceOnUse" gradientTransform="translate(32 32) scale(34.0859)">
<stop stop-color="#FFED81"/>
<stop offset="0.1695" stop-color="#FFEA7E"/>
<stop offset="0.3152" stop-color="#FFE273"/>
<stop offset="0.4521" stop-color="#FFD361"/>
<stop offset="0.5836" stop-color="#FFBF48"/>
<stop offset="0.71" stop-color="#FFA629"/>
<stop offset="0.8267" stop-color="#FF8804"/>
<stop offset="0.8516" stop-color="#FF8D0B"/>
<stop offset="0.8868" stop-color="#FF9C1D"/>
<stop offset="0.9283" stop-color="#FFB53C"/>
<stop offset="0.9741" stop-color="#FFD766"/>
<stop offset="1" stop-color="#FFED81"/>
</radialGradient>
<radialGradient id="paint1_radial_2_8158" cx="0" cy="0" r="1" gradientUnits="userSpaceOnUse" gradientTransform="translate(20.1277 24.8415) scale(4.078 5.77853)">
<stop stop-color="#C98933"/>
<stop offset="0.7707" stop-color="#7A3F1B"/>
<stop offset="0.8273" stop-color="#7E421C"/>
<stop offset="0.8782" stop-color="#884D1F"/>
<stop offset="0.9269" stop-color="#9B5E25"/>
<stop offset="0.974" stop-color="#B4762D"/>
<stop offset="1" stop-color="#C68632"/>
</radialGradient>
<radialGradient id="paint2_radial_2_8158" cx="0" cy="0" r="1" gradientUnits="userSpaceOnUse" gradientTransform="translate(43.8724 24.8415) scale(4.078 5.77853)">
<stop stop-color="#C98933"/>
<stop offset="0.7707" stop-color="#7A3F1B"/>
<stop offset="0.8273" stop-color="#7E421C"/>
<stop offset="0.8782" stop-color="#884D1F"/>
<stop offset="0.9269" stop-color="#9B5E25"/>
<stop offset="0.974" stop-color="#B4762D"/>
<stop offset="1" stop-color="#C68632"/>
</radialGradient>
<linearGradient id="paint3_linear_2_8158" x1="32" y1="40.3589" x2="32" y2="49.1833" gradientUnits="userSpaceOnUse">
<stop stop-color="#C98933"/>
<stop offset="0.5848" stop-color="#985B24"/>
<stop offset="1" stop-color="#7A3F1B"/>
</linearGradient>
<clipPath id="clip0_2_8158">
<rect width="64" height="64" fill="white"/>
</clipPath>
</defs>
</svg>
