<svg width="64" height="64" viewBox="0 0 64 64" fill="none" xmlns="http://www.w3.org/2000/svg">
<g clip-path="url(#clip0_2_8176)">
<path d="M32 64C49.6731 64 64 49.6731 64 32C64 14.3269 49.6731 0 32 0C14.3269 0 0 14.3269 0 32C0 49.6731 14.3269 64 32 64Z" fill="url(#paint0_radial_2_8176)"/>
<path d="M49.4874 44.05H14.5125C13.825 44.05 13.2625 43.4875 13.2625 42.8C13.2625 42.1125 13.825 41.55 14.5125 41.55H49.4874C50.1749 41.55 50.7374 42.1125 50.7374 42.8C50.7374 43.4875 50.1749 44.05 49.4874 44.05Z" fill="url(#paint1_linear_2_8176)"/>
<path d="M18.2125 27.35C20.2559 27.35 21.9125 25.6935 21.9125 23.65C21.9125 21.6066 20.2559 19.95 18.2125 19.95C16.169 19.95 14.5125 21.6066 14.5125 23.65C14.5125 25.6935 16.169 27.35 18.2125 27.35Z" fill="url(#paint2_radial_2_8176)"/>
<path d="M45.7874 27.35C47.8309 27.35 49.4874 25.6935 49.4874 23.65C49.4874 21.6066 47.8309 19.95 45.7874 19.95C43.7439 19.95 42.0874 21.6066 42.0874 23.65C42.0874 25.6935 43.7439 27.35 45.7874 27.35Z" fill="url(#paint3_radial_2_8176)"/>
</g>
<defs>
<radialGradient id="paint0_radial_2_8176" cx="0" cy="0" r="1" gradientUnits="userSpaceOnUse" gradientTransform="translate(32 32) scale(34.0859)">
<stop stop-color="#FFED81"/>
<stop offset="0.1695" stop-color="#FFEA7E"/>
<stop offset="0.3152" stop-color="#FFE273"/>
<stop offset="0.4521" stop-color="#FFD361"/>
<stop offset="0.5836" stop-color="#FFBF48"/>
<stop offset="0.71" stop-color="#FFA629"/>
<stop offset="0.8267" stop-color="#FF8804"/>
<stop offset="0.8516" stop-color="#FF8D0B"/>
<stop offset="0.8868" stop-color="#FF9C1D"/>
<stop offset="0.9283" stop-color="#FFB53C"/>
<stop offset="0.9741" stop-color="#FFD766"/>
<stop offset="1" stop-color="#FFED81"/>
</radialGradient>
<linearGradient id="paint1_linear_2_8176" x1="32" y1="40.1516" x2="32" y2="45.1978" gradientUnits="userSpaceOnUse">
<stop stop-color="#C98933"/>
<stop offset="0.5848" stop-color="#985B24"/>
<stop offset="1" stop-color="#7A3F1B"/>
</linearGradient>
<radialGradient id="paint2_radial_2_8176" cx="0" cy="0" r="1" gradientUnits="userSpaceOnUse" gradientTransform="translate(18.2127 23.6516) scale(4.1265)">
<stop stop-color="#C98933"/>
<stop offset="0.7707" stop-color="#7A3F1B"/>
<stop offset="0.8273" stop-color="#7E421C"/>
<stop offset="0.8782" stop-color="#884D1F"/>
<stop offset="0.9269" stop-color="#9B5E25"/>
<stop offset="0.974" stop-color="#B4762D"/>
<stop offset="1" stop-color="#C68632"/>
</radialGradient>
<radialGradient id="paint3_radial_2_8176" cx="0" cy="0" r="1" gradientUnits="userSpaceOnUse" gradientTransform="translate(45.7872 23.6516) scale(4.1265 4.1265)">
<stop stop-color="#C98933"/>
<stop offset="0.7707" stop-color="#7A3F1B"/>
<stop offset="0.8273" stop-color="#7E421C"/>
<stop offset="0.8782" stop-color="#884D1F"/>
<stop offset="0.9269" stop-color="#9B5E25"/>
<stop offset="0.974" stop-color="#B4762D"/>
<stop offset="1" stop-color="#C68632"/>
</radialGradient>
<clipPath id="clip0_2_8176">
<rect width="64" height="64" fill="white"/>
</clipPath>
</defs>
</svg>
