<svg width="64" height="64" viewBox="0 0 64 64" fill="none" xmlns="http://www.w3.org/2000/svg">
<g clip-path="url(#clip0_2_8179)">
<path d="M31.9624 63.95C49.6355 63.95 63.9624 49.6231 63.9624 31.95C63.9624 14.2769 49.6355 -0.0499878 31.9624 -0.0499878C14.2893 -0.0499878 -0.0375977 14.2769 -0.0375977 31.95C-0.0375977 49.6231 14.2893 63.95 31.9624 63.95Z" fill="url(#paint0_radial_2_8179)"/>
<path d="M43.825 30.05C45.903 30.05 47.5875 27.6883 47.5875 24.775C47.5875 21.8617 45.903 19.5 43.825 19.5C41.747 19.5 40.0625 21.8617 40.0625 24.775C40.0625 27.6883 41.747 30.05 43.825 30.05Z" fill="url(#paint1_radial_2_8179)"/>
<path d="M20.0875 30.05C22.1654 30.05 23.85 27.6883 23.85 24.775C23.85 21.8617 22.1654 19.5 20.0875 19.5C18.0095 19.5 16.325 21.8617 16.325 24.775C16.325 27.6883 18.0095 30.05 20.0875 30.05Z" fill="url(#paint2_radial_2_8179)"/>
<path d="M16.3875 50.175C16.1125 50.175 15.85 50.0625 15.65 49.85C15.275 49.4375 15.3125 48.8125 15.7125 48.4375C19.625 44.875 23.775 42.65 28.05 41.8375C31.4875 41.175 35 41.425 38.4875 42.575C44.375 44.5125 48.1 48.3125 48.25 48.475C48.6375 48.875 48.625 49.5 48.225 49.8875C47.825 50.275 47.2 50.2625 46.8125 49.8625C46.7375 49.7875 43.2 46.2 37.7875 44.45C30.5875 42.1125 23.6125 43.95 17.0625 49.9125C16.8625 50.1 16.625 50.175 16.3875 50.175Z" fill="url(#paint3_linear_2_8179)"/>
</g>
<defs>
<radialGradient id="paint0_radial_2_8179" cx="0" cy="0" r="1" gradientUnits="userSpaceOnUse" gradientTransform="translate(31.9569 31.944) scale(34.0859)">
<stop stop-color="#FFED81"/>
<stop offset="0.1695" stop-color="#FFEA7E"/>
<stop offset="0.3152" stop-color="#FFE273"/>
<stop offset="0.4521" stop-color="#FFD361"/>
<stop offset="0.5836" stop-color="#FFBF48"/>
<stop offset="0.71" stop-color="#FFA629"/>
<stop offset="0.8267" stop-color="#FF8804"/>
<stop offset="0.8516" stop-color="#FF8D0B"/>
<stop offset="0.8868" stop-color="#FF9C1D"/>
<stop offset="0.9283" stop-color="#FFB53C"/>
<stop offset="0.9741" stop-color="#FFD766"/>
<stop offset="1" stop-color="#FFED81"/>
</radialGradient>
<radialGradient id="paint1_radial_2_8179" cx="0" cy="0" r="1" gradientUnits="userSpaceOnUse" gradientTransform="translate(43.8294 24.7857) scale(4.078 5.77853)">
<stop stop-color="#C98933"/>
<stop offset="0.7707" stop-color="#7A3F1B"/>
<stop offset="0.8273" stop-color="#7E421C"/>
<stop offset="0.8782" stop-color="#884D1F"/>
<stop offset="0.9269" stop-color="#9B5E25"/>
<stop offset="0.974" stop-color="#B4762D"/>
<stop offset="1" stop-color="#C68632"/>
</radialGradient>
<radialGradient id="paint2_radial_2_8179" cx="0" cy="0" r="1" gradientUnits="userSpaceOnUse" gradientTransform="translate(20.0847 24.7857) scale(4.078 5.77853)">
<stop stop-color="#C98933"/>
<stop offset="0.7707" stop-color="#7A3F1B"/>
<stop offset="0.8273" stop-color="#7E421C"/>
<stop offset="0.8782" stop-color="#884D1F"/>
<stop offset="0.9269" stop-color="#9B5E25"/>
<stop offset="0.974" stop-color="#B4762D"/>
<stop offset="1" stop-color="#C68632"/>
</radialGradient>
<linearGradient id="paint3_linear_2_8179" x1="31.957" y1="40.0729" x2="31.957" y2="50.4328" gradientUnits="userSpaceOnUse">
<stop stop-color="#C98933"/>
<stop offset="0.5848" stop-color="#985B24"/>
<stop offset="1" stop-color="#7A3F1B"/>
</linearGradient>
<clipPath id="clip0_2_8179">
<rect width="64" height="64" fill="white"/>
</clipPath>
</defs>
</svg>
